<svg width="224" height="224" xmlns="http://www.w3.org/2000/svg">

 <g>
  <title>background</title>
  <rect fill="none" id="canvas_background" height="402" width="582" y="-1" x="-1"/>
 </g>
 <g>
  <title>Layer 1</title>
  <path fill="#00bf00" id="svg_2" d="m189.5899,78.3984c-8.1876,-4.8672 -16.9492,-8.9884 -26.0412,-12.242c-31.742,-11.3596 -66.8224,-12.8636 -104.2596,-4.4768c-10.59,2.3672 -16.8476,4.5312 -19.0472,5.3476c-6.5368,2.4336 -9.8768,9.7344 -7.4452,16.2736c2.4336,6.5392 9.7304,9.8868 16.2696,7.4492l0.008,-0.004c0.6208,-0.2304 1.9432,-0.6796 3.8924,-1.2732c3.6973,-1.1252 7.6836,-2.168 11.8476,-3.1016c32.248,-7.2148 63.4377,-5.9612 90.2072,3.6132c7.5604,2.7072 14.8396,6.1248 21.6348,10.164c2.0212,1.2032 4.246,1.7736 6.4432,1.7736c4.3205,0 8.5372,-2.2072 10.9005,-6.1836c3.5623,-5.9964 1.584,-13.7776 -4.4101,-17.34zm-2.4668,13.254c-1.3128,2.2032 -4.174,2.9256 -6.3812,1.6212c-7.2339,-4.3008 -14.9804,-7.9416 -23.0252,-10.8204c-16.1896,-5.7932 -33.8672,-8.7032 -52.3752,-8.7032c-13.7284,0 -27.914,1.6016 -42.2752,4.8164c-4.3592,0.9764 -8.5392,2.0704 -12.4296,3.254c-2.1816,0.664 -3.6584,1.168 -4.3556,1.4296c-2.4004,0.8984 -5.0936,-0.336 -5.9864,-2.7384c-0.8944,-2.406 0.334,-5.0896 2.7404,-5.9844c2.0449,-0.7616 7.8924,-2.7812 18,-5.0428c35.9432,-8.0508 69.5292,-6.6328 99.8184,4.2032c8.6072,3.082 16.9004,6.9804 24.6484,11.586c2.2032,1.3124 2.9296,4.1716 1.6212,6.3788z"/>
  <path fill="#00bf00" id="svg_3" d="m112,0c-61.7581,0 -112,50.242 -112,112s50.2419,112 112,112c61.7579,0 112,-50.242 112,-112s-50.2421,-112 -112,-112zm0,216c-57.3457,0 -104,-46.6524 -104,-104s46.6543,-104 104,-104c57.3455,0 104,46.6524 104,104s-46.6545,104 -104,104z"/>
  <path fill="#00bf00" id="svg_4" d="m175.9903,108.7968c-41.1428,-17.6368 -79.8888,-22.172 -112.0332,-13.1328c-7.25,2.0392 -11.3888,3.996 -13.2131,4.9844c-6.1329,3.3204 -8.4197,11.0156 -5.0997,17.1524c3.3264,6.1368 11.012,8.418 17.1524,5.1016c0.1972,-0.1016 0.6972,-0.332 1.502,-0.664c1.8984,-0.7852 4.09,-1.5312 6.5096,-2.2112c26.5197,-7.4608 59.4477,-3.2968 95.2132,12.0312c1.6016,0.6876 3.2908,1.0316 4.9825,1.0316c1.5895,0 3.1815,-0.3048 4.7031,-0.9144c3.1364,-1.2536 5.5996,-3.656 6.9296,-6.7656c2.748,-6.414 -0.2344,-13.8672 -6.6464,-16.6132zm-0.7052,13.4648c-0.4904,1.1408 -1.3964,2.0276 -2.5508,2.4884c-1.1543,0.4608 -2.422,0.4416 -3.5604,-0.0428c-25.2112,-10.8048 -49.1956,-16.2816 -70.8128,-16.2816c-10.5096,0 -20.4608,1.2972 -29.7204,3.8988c-2.7228,0.7656 -5.2152,1.6172 -7.3967,2.5192c-1.2657,0.5236 -2.0193,0.8948 -2.2597,1.0236c-1.0936,0.5936 -2.3556,0.7228 -3.5372,0.3672c-1.1932,-0.3556 -2.1756,-1.1524 -2.7676,-2.2424c-1.2208,-2.2576 -0.3788,-5.0896 1.8732,-6.3084c1.2324,-0.668 4.8224,-2.422 11.5704,-4.3164c30.3652,-8.5428 67.2692,-4.1252 106.7148,12.7812c2.3592,1.0116 3.4568,3.754 2.4472,6.1132z"/>
  <path fill="#00bf00" id="svg_5" d="m163.4375,140.5936c-28.594,-16.332 -61.4572,-20.902 -95.0312,-13.1912c-5.012,1.1524 -9.678,2.5196 -12.7988,3.75c-3.1468,1.2344 -5.6232,3.6212 -6.9728,6.7188c-1.3516,3.1016 -1.414,6.5388 -0.1776,9.6836c2.5509,6.492 9.904,9.7032 16.402,7.1524l0.0256,-0.008c0.2908,-0.1172 0.994,-0.3632 2.08,-0.7072c2.1484,-0.6836 4.5412,-1.332 7.1096,-1.9216c27.2672,-6.2656 53.832,-2.6328 76.8064,10.5c1.9748,1.1288 4.1273,1.664 6.252,1.664c4.3964,0 8.6776,-2.2928 11.0136,-6.3752c3.4628,-6.0584 1.3497,-13.8044 -4.7088,-17.2656zm-2.2364,13.2972c-1.2756,2.2224 -4.1232,3.0076 -6.3516,1.734c-16.8888,-9.652 -35.5468,-14.5468 -54.992,-14.5468c-9.0548,0 -18.2796,1.0588 -27.5764,3.1956c-2.7811,0.6404 -5.3868,1.3436 -7.7344,2.0936c-1.3552,0.4256 -2.24,0.746 -2.6212,0.8984c-2.3844,0.926 -5.0855,-0.254 -6.0232,-2.6328c-0.4552,-1.16 -0.4316,-2.4256 0.0644,-3.5624c0.498,-1.1408 1.4084,-2.0196 2.5664,-2.4728c1.3124,-0.5156 5.0744,-1.8828 11.664,-3.3984c31.5744,-7.254 62.4452,-2.9844 89.2716,12.34c1.078,0.6172 1.8536,1.6172 2.1796,2.8164c0.328,1.2028 0.17,2.4568 -0.4472,3.5352z"/>
 </g>
</svg>